<svg width="21" height="20" viewBox="0 0 21 20" fill="none" xmlns="http://www.w3.org/2000/svg">
<path d="M20.5002 10.2219C20.5002 9.3997 20.4321 8.7997 20.2848 8.17749H10.7041V11.8885H16.3277C16.2144 12.8108 15.6022 14.1997 14.2416 15.133L14.2225 15.2572L17.2517 17.5569L17.4616 17.5775C19.389 15.833 20.5002 13.2663 20.5002 10.2219" fill="#4285F4"/>
<path d="M10.7027 20.0001C13.4578 20.0001 15.7708 19.1111 17.4602 17.5778L14.2402 15.1333C13.3785 15.7222 12.222 16.1333 10.7027 16.1333C8.0043 16.1333 5.71403 14.3889 4.89761 11.9778L4.77794 11.9877L1.62811 14.3767L1.58691 14.4889C3.26493 17.7555 6.71171 20.0001 10.7027 20.0001Z" fill="#34A853"/>
<path d="M4.89914 11.9777C4.68372 11.3555 4.55904 10.6888 4.55904 9.99996C4.55904 9.31103 4.68372 8.64439 4.8878 8.02218L4.8821 7.88966L1.69278 5.4624L1.58843 5.51104C0.896838 6.86661 0.5 8.38886 0.5 9.99996C0.5 11.6111 0.896838 13.1332 1.58843 14.4888L4.89914 11.9777" fill="#FBBC05"/>
<path d="M10.7028 3.86663C12.6189 3.86663 13.9114 4.67773 14.6484 5.35555L17.5283 2.59999C15.7596 0.988889 13.4579 0 10.7028 0C6.71174 0 3.26494 2.24442 1.58691 5.51105L4.88629 8.02218C5.71405 5.61109 8.00433 3.86663 10.7028 3.86663" fill="#EB4335"/>
</svg>
